<svg width="1280" height="720" viewBox="0 0 1280 720" fill="none" xmlns="http://www.w3.org/2000/svg">
  <rect width="1280" height="720" fill="#0F172A"/>
  <rect x="96" y="88" width="1088" height="544" rx="32" fill="#F8FAFC"/>
  <rect x="136" y="128" width="1008" height="76" rx="20" fill="#EEF2FF"/>
  <rect x="168" y="152" width="210" height="28" rx="14" fill="#2563EB"/>
  <rect x="880" y="152" width="84" height="28" rx="14" fill="#CBD5E1"/>
  <rect x="984" y="152" width="84" height="28" rx="14" fill="#CBD5E1"/>
  <rect x="136" y="236" width="304" height="308" rx="24" fill="#DBEAFE"/>
  <rect x="472" y="236" width="304" height="136" rx="24" fill="#E0E7FF"/>
  <rect x="808" y="236" width="336" height="136" rx="24" fill="#DCFCE7"/>
  <rect x="472" y="408" width="672" height="136" rx="24" fill="#FDE68A"/>
  <circle cx="640" cy="360" r="72" fill="#2563EB"/>
  <path d="M617 324L681 360L617 396V324Z" fill="white"/>
  <text x="640" y="606" text-anchor="middle" fill="#E2E8F0" font-family="Arial, sans-serif" font-size="32" font-weight="700">Demo SkillBridge</text>
</svg>
